<?xml version="1.0" standalone="no"?>
<!DOCTYPE svg PUBLIC "-//W3C//DTD SVG 20010904//EN"
 "http://www.w3.org/TR/2001/REC-SVG-20010904/DTD/svg10.dtd">
<svg version="1.0" xmlns="http://www.w3.org/2000/svg"
 width="512.000000pt" height="512.000000pt" viewBox="0 0 512.000000 512.000000"
 preserveAspectRatio="xMidYMid meet">

<g transform="translate(0.000000,512.000000) scale(0.100000,-0.100000)"
fill="#000000" stroke="none">
<path d="M2405 4604 c-16 -2 -72 -9 -124 -15 -51 -6 -152 -26 -225 -44 -573
-144 -1060 -535 -1326 -1065 -211 -419 -270 -881 -173 -1345 65 -312 217 -629
421 -878 79 -96 248 -258 344 -330 491 -367 1111 -499 1703 -363 208 48 480
164 660 283 448 295 769 767 879 1291 75 361 56 710 -59 1060 -255 775 -938
1321 -1754 1402 -97 9 -279 11 -346 4z m491 -349 c613 -126 1093 -546 1298
-1134 137 -393 125 -815 -35 -1216 -165 -413 -531 -780 -942 -943 -478 -190
-980 -172 -1429 52 -489 245 -820 685 -929 1236 -30 152 -33 442 -5 595 140
774 738 1339 1516 1435 130 16 389 4 526 -25z"/>
<path d="M2379 3555 c-201 -38 -388 -136 -532 -279 -217 -215 -329 -524 -297
-819 48 -436 346 -777 776 -888 133 -34 339 -32 479 4 188 50 365 154 494 292
52 56 61 70 49 79 -8 6 -64 51 -126 99 l-112 88 -52 -53 c-135 -138 -308 -211
-498 -211 -171 1 -315 52 -444 159 -161 133 -248 320 -249 534 0 111 19 195
67 295 70 148 174 253 322 326 193 94 427 93 617 -3 75 -37 165 -105 206 -154
17 -21 35 -34 43 -31 7 3 64 46 127 96 l114 90 -79 82 c-133 137 -289 227
-474 276 -121 31 -317 40 -431 18z"/>
</g>
</svg>
