<?xml version="1.0" standalone="no"?>
<!DOCTYPE svg PUBLIC "-//W3C//DTD SVG 20010904//EN"
 "http://www.w3.org/TR/2001/REC-SVG-20010904/DTD/svg10.dtd">
<svg version="1.0" xmlns="http://www.w3.org/2000/svg"
 width="30px" height="30px" viewBox="0 0 512.000000 512.000000"
 preserveAspectRatio="xMidYMid meet">

<g transform="translate(0.000000,512.000000) scale(0.100000,-0.100000)"
fill="#FFF" stroke="none">
<path d="M2340 5023 c-114 -7 -340 -35 -470 -59 -357 -66 -648 -162 -951 -315
-253 -127 -411 -239 -579 -408 -162 -163 -259 -321 -311 -506 -30 -104 -32
-305 -5 -405 51 -186 164 -299 333 -335 86 -19 732 -21 815 -4 106 23 203 87
263 174 73 106 92 234 55 375 -10 41 -16 78 -12 82 4 4 55 27 113 52 366 153
765 224 1106 198 300 -23 589 -96 865 -217 46 -20 84 -38 86 -40 1 -1 -6 -36
-18 -76 -57 -207 14 -398 190 -506 79 -48 119 -52 535 -55 385 -3 391 -3 453
20 210 76 308 244 306 527 -1 262 -107 485 -343 722 -508 510 -1510 830 -2431
776z"/>
<path d="M2089 3209 c-64 -38 -79 -78 -79 -218 l0 -121 -172 0 c-162 0 -175
-2 -209 -23 -39 -23 -481 -484 -599 -622 -206 -243 -368 -566 -439 -875 -48
-207 -54 -293 -55 -730 -1 -461 -2 -453 66 -502 l33 -23 1925 0 1925 0 33 23
c68 49 67 41 66 502 -1 437 -7 524 -55 730 -71 309 -234 634 -439 874 -119
141 -561 600 -599 623 -34 21 -47 23 -208 23 l-173 0 0 121 c0 105 -3 126 -21
159 -59 105 -202 104 -264 -1 -15 -27 -20 -57 -23 -156 l-4 -123 -238 0 -238
0 -4 123 c-4 134 -16 170 -70 210 -40 30 -115 33 -159 6z m674 -988 c227 -59
441 -243 530 -456 119 -284 72 -599 -122 -828 -99 -117 -221 -199 -371 -249
-89 -30 -104 -32 -240 -32 -136 0 -151 2 -240 32 -257 86 -449 281 -526 537
-37 124 -40 310 -6 428 73 254 244 443 493 544 136 55 325 64 482 24z"/>
<path d="M2418 1921 c-208 -67 -348 -256 -348 -470 0 -137 47 -250 144 -347
159 -159 378 -190 586 -84 60 30 161 134 193 195 75 149 77 317 5 460 -54 106
-177 208 -295 245 -83 26 -206 26 -285 1z"/>
</g>
</svg>
